# xmcd CD database file
#
# Track frame offsets:
#	150
#	27437
#	47092
#	82647
#	150032
#
# Disc length: 2423 seconds
#
# Revision: 0
# Processed by: cddbd v1.5.2PL0 Copyright (c) Steve Scherf et al.
# Submitted via: CDex 1.70beta2
#
DISCID=24097505
DTITLE=Sun Ra - Pictures Of Infinity
DYEAR=1968
DGENRE=Jazz
TTITLE0=Saturn
TTITLE1=Song of The Sparer
TTITLE2=Spontaneous Simplicity
TTITLE3=Somewhere There
TTITLE4=Outer Spaceways Incorporated
EXTD=YEAR: 1968
EXTT0=
EXTT1=
EXTT2=
EXTT3=
EXTT4=
PLAYORDER=
